<?xml version="1.0" encoding="UTF-8"?>
<svg id="Capa_2" data-name="Capa 2" xmlns="http://www.w3.org/2000/svg" xmlns:xlink="http://www.w3.org/1999/xlink" viewBox="0 0 1725.54 896.55">
  <defs>
    <style>
      .cls-1 {
        fill: url(#Degradado_sin_nombre_7-3);
      }

      .cls-2 {
        fill: url(#Degradado_sin_nombre_7-7);
      }

      .cls-3 {
        fill: #fff;
      }

      .cls-4 {
        fill: url(#Degradado_sin_nombre_7-2);
      }

      .cls-5 {
        fill: url(#Degradado_sin_nombre_10-3);
      }

      .cls-6 {
        fill: url(#Degradado_sin_nombre_10-4);
      }

      .cls-7 {
        fill: url(#Degradado_sin_nombre_7-6);
      }

      .cls-8 {
        fill: url(#Degradado_sin_nombre_10-2);
      }

      .cls-9 {
        fill: url(#Degradado_sin_nombre_10);
      }

      .cls-10 {
        fill: url(#Degradado_sin_nombre_7-4);
      }

      .cls-11 {
        fill: none;
      }

      .cls-12 {
        fill: url(#Degradado_sin_nombre_7-5);
      }

      .cls-13 {
        fill: url(#Degradado_sin_nombre_7);
      }
    </style>
    <linearGradient id="Degradado_sin_nombre_10" data-name="Degradado sin nombre 10" x1="30.22" y1="175.1" x2="1233.65" y2="140.81" gradientUnits="userSpaceOnUse">
      <stop offset="0" stop-color="#7f2035"/>
      <stop offset="1" stop-color="#2e0305"/>
    </linearGradient>
    <linearGradient id="Degradado_sin_nombre_10-2" data-name="Degradado sin nombre 10" x1="31.15" y1="207.65" x2="1234.57" y2="173.37" xlink:href="#Degradado_sin_nombre_10"/>
    <linearGradient id="Degradado_sin_nombre_10-3" data-name="Degradado sin nombre 10" x1="30.67" y1="190.78" x2="1234.09" y2="156.49" xlink:href="#Degradado_sin_nombre_10"/>
    <linearGradient id="Degradado_sin_nombre_10-4" data-name="Degradado sin nombre 10" x1="30.89" y1="198.66" x2="1234.32" y2="164.38" xlink:href="#Degradado_sin_nombre_10"/>
    <linearGradient id="Degradado_sin_nombre_7" data-name="Degradado sin nombre 7" x1="352.81" y1="315.78" x2="368.24" y2="763.2" gradientUnits="userSpaceOnUse">
      <stop offset="0" stop-color="#db6312"/>
      <stop offset="1" stop-color="#e8b600"/>
    </linearGradient>
    <linearGradient id="Degradado_sin_nombre_7-2" data-name="Degradado sin nombre 7" x1="598.92" y1="307.29" x2="614.35" y2="754.72" xlink:href="#Degradado_sin_nombre_7"/>
    <linearGradient id="Degradado_sin_nombre_7-3" data-name="Degradado sin nombre 7" x1="954.52" y1="295.03" x2="969.95" y2="742.45" xlink:href="#Degradado_sin_nombre_7"/>
    <linearGradient id="Degradado_sin_nombre_7-4" data-name="Degradado sin nombre 7" x1="1594.53" y1="272.96" x2="1609.96" y2="720.39" xlink:href="#Degradado_sin_nombre_7"/>
    <linearGradient id="Degradado_sin_nombre_7-5" data-name="Degradado sin nombre 7" x1="1479.76" y1="276.91" x2="1495.18" y2="724.34" xlink:href="#Degradado_sin_nombre_7"/>
    <linearGradient id="Degradado_sin_nombre_7-6" data-name="Degradado sin nombre 7" x1="1348.34" y1="281.45" x2="1363.77" y2="728.87" xlink:href="#Degradado_sin_nombre_7"/>
    <linearGradient id="Degradado_sin_nombre_7-7" data-name="Degradado sin nombre 7" x1="1651.73" y1="270.98" x2="1667.16" y2="718.41" xlink:href="#Degradado_sin_nombre_7"/>
  </defs>
  <g id="Capa_1-2" data-name="Capa 1">
    <g>
      <g>
        <path class="cls-11" d="m500.44,226.79c-.55-.23-.97-.04-1.28.58-1.71,2.8-3.7,5.71-5.95,8.74-2.26,3.03-4.78,5.83-7.58,8.39-2.8,2.56-5.79,4.66-8.98,6.3-3.19,1.63-6.49,2.45-9.91,2.45h-34.04v-121.02c0-2.17.93-4.47,2.8-6.88,1.87-2.41,4.51-4.47,7.93-6.18.47-.31.62-.7.47-1.17-.16-.47-.47-.7-.93-.7h-43.6c-.47,0-.78.23-.93.7-.16.47,0,.86.47,1.17,2.02,1.25,4.2,3.19,6.53,5.83,2.33,2.65,3.5,6.22,3.5,10.73v107.03c0,2.18-.9,4.47-2.68,6.88-1.79,2.41-4.39,4.39-7.81,5.95-.47.31-.62.7-.47,1.17.15.47.47.7.93.7h33.58v.23h56.66c1.55,0,2.64-.85,3.26-2.56l8.63-27.05c.15-.62-.04-1.05-.58-1.28Z"/>
        <path class="cls-11" d="m373.47,190.18c-5.91-3.5-12.32-6.57-19.24-9.21-6.92-2.64-13.33-5.44-19.24-8.39-5.91-2.95-10.84-6.33-14.81-10.14-3.96-3.81-5.95-8.51-5.95-14.11,0-9.33,2.8-16.36,8.39-21.1,5.6-4.74,13.44-7.11,23.55-7.11,3.73,0,7.27.74,10.61,2.22,3.34,1.48,6.26,3.61,8.74,6.41,2.48,2.8,4.51,6.18,6.06,10.14,1.55,3.96,2.41,8.43,2.56,13.41,0,.62.27.97.82,1.05.54.08.97-.12,1.28-.58l9.56-18.19c.46-1.24.31-2.41-.47-3.5-.93-1.09-2.33-2.45-4.2-4.08s-4.35-3.22-7.46-4.78c-3.11-1.55-6.92-2.91-11.43-4.08-4.51-1.17-9.79-1.75-15.86-1.75-7.31,0-14.22.66-20.75,1.98-6.53,1.32-12.28,3.46-17.26,6.41-4.98,2.95-8.9,6.76-11.78,11.43-2.88,4.66-4.31,10.26-4.31,16.79,0,7,1.98,12.94,5.95,17.84,3.96,4.9,8.86,9.13,14.69,12.71,5.83,3.58,12.2,6.8,19.12,9.68,6.92,2.88,13.33,5.83,19.24,8.86,5.91,3.03,10.88,6.38,14.92,10.03,4.04,3.65,6.06,8.2,6.06,13.64,0,3.73-.74,7.39-2.21,10.96-1.48,3.58-3.65,6.69-6.53,9.33-2.88,2.64-6.34,4.78-10.38,6.41-4.04,1.63-8.63,2.45-13.76,2.45-4.82,0-9.52-.85-14.11-2.56-4.59-1.71-8.67-4.04-12.24-7-3.58-2.95-6.49-6.41-8.74-10.38-2.25-3.96-3.54-8.28-3.85-12.94-.16-.47-.43-.74-.82-.82-.39-.08-.74.04-1.05.35l-12.12,17.49c-.47.78-.62,1.52-.47,2.21.15.7.54,1.21,1.17,1.52,1.55,1.09,3.88,2.49,7,4.2,3.11,1.71,6.88,3.42,11.31,5.13,4.43,1.71,9.48,3.19,15.16,4.43,5.67,1.25,11.85,1.87,18.54,1.87,5.75,0,11.85-.54,18.3-1.63,6.45-1.08,12.39-3.03,17.84-5.83,5.44-2.8,9.95-6.61,13.53-11.43,3.57-4.82,5.36-11.04,5.36-18.65s-1.98-13.37-5.95-18.19c-3.96-4.82-8.9-8.98-14.81-12.47Z"/>
        <path class="cls-11" d="m543.69,125.12c1.87-2.41,4.51-4.39,7.93-5.95.47-.31.62-.7.47-1.17-.16-.47-.47-.7-.93-.7h-43.6c-.47,0-.78.2-.93.58-.16.39,0,.74.47,1.05,2.02,1.25,4.2,3.23,6.53,5.95,2.33,2.72,3.5,6.34,3.5,10.84v106.79c0,2.18-.9,4.47-2.68,6.88-1.79,2.41-4.39,4.47-7.81,6.18-.47.31-.62.7-.47,1.17.15.47.47.7.93.7h44.07c.47,0,.78-.23.93-.7.15-.47,0-.85-.47-1.17-3.42-1.71-6.06-3.77-7.93-6.18-1.87-2.41-2.8-4.7-2.8-6.88v-110.53c0-2.18.93-4.47,2.8-6.88Z"/>
        <path class="cls-11" d="m794.01,135.85c-6.61-6.61-14.3-11.81-23.08-15.62-8.78-3.81-18.23-5.71-28.33-5.71s-19.35,1.91-28.21,5.71c-8.86,3.81-16.6,9.02-23.2,15.62s-11.82,14.3-15.62,23.08c-3.81,8.78-5.71,18.23-5.71,28.33v.23c0,9.95,1.9,19.35,5.71,28.21,3.81,8.86,9.01,16.6,15.62,23.2,6.61,6.61,14.34,11.82,23.2,15.62,8.86,3.81,18.26,5.71,28.21,5.71s19.55-1.9,28.33-5.71c8.78-3.81,16.48-9.01,23.08-15.62s11.81-14.34,15.62-23.2c3.81-8.86,5.71-18.26,5.71-28.21v-.23c0-10.1-1.91-19.55-5.71-28.33-3.81-8.78-9.02-16.48-15.62-23.08Zm-5.71,51.65c0,9.33-.82,18.11-2.45,26.35-1.63,8.24-4.24,15.43-7.81,21.57-3.58,6.14-8.28,11-14.11,14.57-5.83,3.58-12.94,5.36-21.34,5.36s-15.51-1.79-21.34-5.36c-5.83-3.57-10.57-8.43-14.22-14.57-3.65-6.14-6.26-13.33-7.81-21.57-1.56-8.24-2.33-17.02-2.33-26.35v-.23c0-9.33.78-18.11,2.33-26.35,1.55-8.24,4.16-15.43,7.81-21.57,3.65-6.14,8.39-11,14.22-14.57,5.83-3.57,12.94-5.36,21.34-5.36s15.51,1.79,21.34,5.36c5.83,3.58,10.53,8.43,14.11,14.57,3.57,6.14,6.18,13.33,7.81,21.57,1.63,8.24,2.45,17.02,2.45,26.35v.23Z"/>
        <path class="cls-11" d="m214.68,135.97c-6.38-6.06-14.46-10.69-24.25-13.87-9.79-3.18-21.3-4.78-34.51-4.78h-46.87c-.47,0-.78.23-.93.7-.16.47,0,.86.47,1.17,2.02,1.25,4.2,3.19,6.53,5.83,2.33,2.65,3.5,6.22,3.5,10.73v106.79c0,2.18-.9,4.47-2.68,6.88-1.79,2.41-4.39,4.47-7.81,6.18-.47.31-.62.7-.47,1.17.15.47.47.7.93.7h52c25.03-.78,43.49-7.31,55.38-19.59,11.89-12.28,17.84-29.07,17.84-50.37,0-10.88-1.6-20.67-4.78-29.38-3.19-8.7-7.97-16.09-14.34-22.15Zm-10.38,77.76c-2.25,8.01-5.56,14.89-9.91,20.64-4.35,5.75-9.68,10.26-15.97,13.52-6.29,3.26-13.41,4.98-21.33,5.13h-14.69V121.74h13.52c8.24,0,15.54,1.63,21.92,4.9,6.37,3.26,11.78,7.81,16.21,13.64,4.43,5.83,7.81,12.75,10.14,20.75,2.33,8.01,3.5,16.83,3.5,26.47s-1.13,18.23-3.38,26.23Z"/>
        <path class="cls-11" d="m274.61,125.12c1.87-2.41,4.51-4.39,7.93-5.95.47-.31.62-.7.47-1.17-.16-.47-.47-.7-.93-.7h-43.6c-.47,0-.78.2-.93.58-.16.39,0,.74.47,1.05,2.02,1.25,4.2,3.23,6.53,5.95,2.33,2.72,3.5,6.34,3.5,10.84v106.79c0,2.18-.9,4.47-2.68,6.88-1.79,2.41-4.39,4.47-7.81,6.18-.47.31-.62.7-.47,1.17.15.47.47.7.93.7h44.07c.47,0,.78-.23.93-.7.15-.47,0-.85-.47-1.17-3.42-1.71-6.06-3.77-7.93-6.18-1.87-2.41-2.8-4.7-2.8-6.88v-110.53c0-2.18.93-4.47,2.8-6.88Z"/>
        <path class="cls-11" d="m946.62,255.59c-5.29-3.11-9.83-6.8-13.64-11.08-3.81-4.27-7.19-8.74-10.14-13.41-2.96-4.66-5.75-9.36-8.39-14.11-2.65-4.74-5.52-9.21-8.63-13.41-3.11-4.2-6.65-7.93-10.61-11.19s-8.74-5.67-14.34-7.23c6.37-.47,12.28-1.52,17.72-3.15,5.44-1.63,10.22-3.81,14.34-6.53,4.12-2.72,7.38-6.06,9.79-10.03,2.41-3.96,3.61-8.51,3.61-13.64v-.23c0-5.6-1.4-10.53-4.2-14.81-2.8-4.27-6.53-7.81-11.19-10.61-4.66-2.8-10.14-4.93-16.44-6.41-6.3-1.48-12.94-2.29-19.94-2.45h-53.63c-.47,0-.78.23-.93.7-.16.47,0,.86.47,1.17,2.02,1.25,4.2,3.19,6.53,5.83,2.33,2.65,3.5,6.22,3.5,10.73v106.79c0,2.18-.9,4.47-2.68,6.88-1.79,2.41-4.39,4.47-7.81,6.18-.47.31-.62.7-.47,1.17.15.47.47.7.93.7h44.07c.47,0,.78-.23.93-.7.15-.47,0-.85-.47-1.17-3.42-1.71-6.06-3.77-7.93-6.18-1.87-2.41-2.8-4.7-2.8-6.88v-57.13h9.56c4.97,2.18,8.98,4.82,12.01,7.93,3.03,3.11,5.6,6.61,7.69,10.49,2.1,3.89,3.92,8.01,5.48,12.36,1.55,4.35,3.34,8.74,5.36,13.17,2.02,4.43,4.51,8.86,7.46,13.29,2.95,4.43,6.84,8.59,11.66,12.47,2.02,1.71,4.35,2.56,7,2.56h25.42c.62,0,1.01-.27,1.17-.82.15-.54,0-.97-.47-1.28Zm-74.38-74.85h-17.96v-58.76h20.05c3.57.31,6.68,1.36,9.33,3.15,2.64,1.79,4.78,4.08,6.41,6.88,1.63,2.8,2.83,5.87,3.61,9.21.78,3.34,1.17,6.8,1.17,10.38s-.43,7.11-1.28,10.61c-.86,3.5-2.18,6.61-3.96,9.33-1.79,2.72-4.12,4.94-7,6.65-2.88,1.71-6.34,2.56-10.38,2.56Z"/>
        <path class="cls-11" d="m667.74,229c-.31-.47-.74-.66-1.28-.58-.55.08-.97.35-1.28.82-.78,1.56-2.02,3.65-3.73,6.3-1.71,2.65-4.04,5.21-7,7.69-2.96,2.49-6.57,4.63-10.84,6.41-4.28,1.79-9.37,2.68-15.27,2.68-6.84,0-13.1-1.71-18.77-5.13-5.68-3.42-10.53-8.04-14.57-13.87-4.04-5.83-7.19-12.71-9.44-20.64-2.25-7.93-3.38-16.4-3.38-25.42s.93-17.49,2.8-25.42c1.87-7.93,4.62-14.84,8.28-20.75,3.65-5.91,8.12-10.57,13.41-13.99,5.28-3.42,11.43-5.13,18.42-5.13,6.22,0,11.27,1.25,15.16,3.73,3.88,2.49,6.92,5.48,9.09,8.98,2.17,3.5,3.73,7.11,4.66,10.84.93,3.73,1.48,6.76,1.63,9.09,0,.47.19.7.58.7s.66-.15.82-.47l7.93-25.42c.62-1.71.08-2.95-1.63-3.73-2.18-.93-4.78-1.9-7.81-2.92-3.03-1.01-6.22-1.9-9.56-2.68-3.34-.78-6.69-1.44-10.03-1.98-3.34-.54-6.57-.82-9.68-.82-9.64,0-18.73,1.83-27.28,5.48-8.55,3.65-15.97,8.67-22.27,15.04-6.3,6.38-11.27,13.8-14.92,22.27-3.65,8.47-5.48,17.53-5.48,27.17s1.67,18.73,5.01,27.28c3.34,8.55,8.12,16.01,14.34,22.39,6.22,6.38,13.72,11.39,22.5,15.04,8.78,3.65,18.61,5.48,29.5,5.48,6.37,0,11.93-.93,16.67-2.8,4.74-1.87,8.74-4.04,12.01-6.53,3.26-2.49,5.87-5.05,7.81-7.7,1.94-2.64,3.3-4.74,4.08-6.3.78-1.55.78-3.03,0-4.43l-.47-.7Z"/>
        <path class="cls-11" d="m1155.55,190.18c-5.91-3.5-12.32-6.57-19.24-9.21-6.92-2.64-13.33-5.44-19.24-8.39-5.91-2.95-10.84-6.33-14.81-10.14-3.96-3.81-5.95-8.51-5.95-14.11,0-9.33,2.8-16.36,8.39-21.1,5.6-4.74,13.44-7.11,23.55-7.11,3.73,0,7.27.74,10.61,2.22,3.34,1.48,6.26,3.61,8.74,6.41,2.48,2.8,4.51,6.18,6.06,10.14,1.55,3.96,2.41,8.43,2.56,13.41,0,.62.27.97.82,1.05.54.08.97-.12,1.28-.58l9.56-18.19c.47-1.24.31-2.41-.47-3.5-.93-1.09-2.33-2.45-4.2-4.08-1.87-1.63-4.35-3.22-7.46-4.78-3.11-1.55-6.92-2.91-11.43-4.08-4.51-1.17-9.79-1.75-15.86-1.75-7.31,0-14.22.66-20.75,1.98-6.53,1.32-12.28,3.46-17.25,6.41-4.98,2.95-8.9,6.76-11.78,11.43-2.88,4.66-4.31,10.26-4.31,16.79,0,7,1.98,12.94,5.95,17.84,3.96,4.9,8.86,9.13,14.69,12.71,5.83,3.58,12.2,6.8,19.12,9.68,6.92,2.88,13.33,5.83,19.24,8.86,5.91,3.03,10.88,6.38,14.92,10.03,4.04,3.65,6.06,8.2,6.06,13.64,0,3.73-.74,7.39-2.21,10.96-1.48,3.58-3.65,6.69-6.53,9.33-2.88,2.64-6.34,4.78-10.38,6.41-4.04,1.63-8.63,2.45-13.76,2.45-4.82,0-9.52-.85-14.11-2.56-4.59-1.71-8.67-4.04-12.24-7-3.58-2.95-6.49-6.41-8.74-10.38-2.26-3.96-3.54-8.28-3.85-12.94-.16-.47-.43-.74-.82-.82-.39-.08-.74.04-1.05.35l-12.12,17.49c-.47.78-.62,1.52-.47,2.21s.54,1.21,1.17,1.52c1.55,1.09,3.88,2.49,7,4.2,3.11,1.71,6.88,3.42,11.31,5.13,4.43,1.71,9.48,3.19,15.16,4.43,5.67,1.25,11.85,1.87,18.54,1.87,5.75,0,11.85-.54,18.3-1.63,6.45-1.08,12.39-3.03,17.84-5.83,5.44-2.8,9.95-6.61,13.52-11.43,3.57-4.82,5.36-11.04,5.36-18.65s-1.98-13.37-5.95-18.19c-3.96-4.82-8.9-8.98-14.81-12.47Z"/>
        <path class="cls-11" d="m1059.48,117.31h-100.5c-.47,0-.78.23-.93.7-.16.47,0,.86.47,1.17,2.02,1.25,4.2,3.19,6.53,5.83,2.33,2.65,3.5,6.22,3.5,10.73v107.03c0,2.18-.9,4.47-2.68,6.88-1.79,2.41-4.39,4.39-7.81,5.95-.47.31-.62.7-.47,1.17.15.47.47.7.93.7h91.41c1.87,0,3.03-.85,3.5-2.57l6.53-21.22c0-.31-.12-.54-.35-.7-.23-.15-.43-.08-.58.23-3.58,5.6-7.58,10.3-12.01,14.11-4.43,3.81-10.14,5.71-17.14,5.71h-37.54v-65.76h12.12c2.8.16,5.05.7,6.76,1.63,1.71.93,2.95,2.18,3.73,3.73.78,1.56,1.28,3.5,1.52,5.83s.35,4.98.35,7.93c0,.31.15.51.47.58.31.08.47-.04.47-.35l6.3-21.92,4.66-14.22c.15-.31.08-.54-.23-.7-.31-.15-.62-.08-.93.23-1.56,2.49-3.19,4.55-4.9,6.18-1.71,1.63-3.58,2.96-5.6,3.96-2.02,1.01-4.31,1.71-6.88,2.1-2.56.39-5.56.58-8.98.58h-8.86v-61.09h46.87c3.42,0,6.1.43,8.04,1.28,1.94.86,3.38,2.1,4.31,3.73.93,1.63,1.52,3.69,1.75,6.18.23,2.49.35,5.36.35,8.63,0,.31.12.51.35.58.23.08.43-.04.58-.35l6.3-22.62c.31-1.24-.16-1.87-1.4-1.87Z"/>
        <path class="cls-9" d="m889.61,171.53c1.79-2.72,3.11-5.83,3.96-9.33.85-3.5,1.28-7.03,1.28-10.61s-.39-7.03-1.17-10.38c-.78-3.34-1.98-6.41-3.61-9.21-1.63-2.8-3.77-5.09-6.41-6.88-2.65-1.79-5.75-2.83-9.33-3.15h-20.05v58.76h17.96c4.04,0,7.5-.85,10.38-2.56,2.88-1.71,5.21-3.92,7-6.65Z"/>
        <path class="cls-8" d="m778.04,139.35c-3.58-6.14-8.28-11-14.11-14.57-5.83-3.57-12.94-5.36-21.34-5.36s-15.51,1.79-21.34,5.36c-5.83,3.58-10.57,8.43-14.22,14.57-3.65,6.14-6.26,13.33-7.81,21.57-1.56,8.24-2.33,17.02-2.33,26.35v.23c0,9.33.78,18.11,2.33,26.35,1.55,8.24,4.16,15.43,7.81,21.57,3.65,6.14,8.39,11,14.22,14.57,5.83,3.58,12.94,5.36,21.34,5.36s15.51-1.79,21.34-5.36c5.83-3.57,10.53-8.43,14.11-14.57,3.57-6.14,6.18-13.33,7.81-21.57,1.63-8.24,2.45-17.02,2.45-26.35v-.23c0-9.33-.82-18.11-2.45-26.35-1.63-8.24-4.24-15.43-7.81-21.57Z"/>
        <path class="cls-5" d="m194.04,140.28c-4.43-5.83-9.83-10.38-16.21-13.64-6.38-3.26-13.68-4.9-21.92-4.9h-13.52v131.28h14.69c7.93-.15,15.04-1.87,21.33-5.13,6.3-3.26,11.62-7.77,15.97-13.52,4.35-5.75,7.66-12.63,9.91-20.64,2.25-8,3.38-16.75,3.38-26.23s-1.17-18.46-3.5-26.47c-2.33-8-5.71-14.92-10.14-20.75Z"/>
        <path class="cls-6" d="m1268.62,218.14c-12.16-90.33-89.74-157.49-180.89-157.51l-990.02-.14S22.59,62.94,8.36,0c0,0-12.87,60.07-6.67,128.6,8.91,98.38,91.64,173.6,190.42,173.6h982.3v.16s75.12-2.46,89.35,60.49c0,0,14.95-69.77,4.86-144.71Zm-1052.66,19.73c-11.89,12.28-30.35,18.81-55.38,19.59h-52c-.47,0-.78-.23-.93-.7-.15-.47,0-.85.47-1.17,3.42-1.71,6.02-3.77,7.81-6.18,1.79-2.41,2.68-4.7,2.68-6.88v-106.79c0-4.51-1.17-8.08-3.5-10.73-2.33-2.64-4.51-4.58-6.53-5.83-.47-.31-.62-.7-.47-1.17.15-.47.47-.7.93-.7h46.87c13.21,0,24.72,1.6,34.51,4.78,9.79,3.19,17.88,7.81,24.25,13.87,6.37,6.06,11.15,13.45,14.34,22.15,3.18,8.71,4.78,18.5,4.78,29.38,0,21.3-5.95,38.09-17.84,50.37Zm58.65,11.54c1.87,2.41,4.51,4.47,7.93,6.18.47.31.62.7.47,1.17-.16.47-.47.7-.93.7h-44.07c-.47,0-.78-.23-.93-.7-.15-.47,0-.85.47-1.17,3.42-1.71,6.02-3.77,7.81-6.18,1.79-2.41,2.68-4.7,2.68-6.88v-106.79c0-4.51-1.17-8.12-3.5-10.84-2.33-2.72-4.51-4.7-6.53-5.95-.47-.31-.62-.66-.47-1.05.15-.39.47-.58.93-.58h43.6c.47,0,.78.23.93.7.15.47,0,.86-.47,1.17-3.42,1.56-6.06,3.54-7.93,5.95-1.87,2.41-2.8,4.7-2.8,6.88v110.53c0,2.18.93,4.47,2.8,6.88Zm114.26-9.91c-3.58,4.82-8.09,8.63-13.53,11.43-5.44,2.8-11.39,4.74-17.84,5.83-6.45,1.09-12.55,1.63-18.3,1.63-6.69,0-12.86-.62-18.54-1.87-5.68-1.24-10.73-2.72-15.16-4.43-4.43-1.71-8.2-3.42-11.31-5.13-3.11-1.71-5.44-3.11-7-4.2-.62-.31-1.01-.82-1.17-1.52-.15-.7,0-1.44.47-2.21l12.12-17.49c.31-.31.66-.43,1.05-.35.39.08.66.35.82.82.31,4.66,1.59,8.98,3.85,12.94,2.25,3.96,5.17,7.42,8.74,10.38,3.57,2.96,7.65,5.29,12.24,7,4.58,1.71,9.29,2.56,14.11,2.56,5.13,0,9.71-.82,13.76-2.45,4.04-1.63,7.5-3.77,10.38-6.41,2.88-2.64,5.05-5.75,6.53-9.33,1.48-3.57,2.21-7.23,2.21-10.96,0-5.44-2.02-9.99-6.06-13.64-4.04-3.65-9.02-7-14.92-10.03-5.91-3.03-12.32-5.98-19.24-8.86-6.92-2.88-13.29-6.1-19.12-9.68-5.83-3.57-10.73-7.81-14.69-12.71-3.96-4.9-5.95-10.84-5.95-17.84,0-6.53,1.44-12.12,4.31-16.79,2.88-4.66,6.8-8.47,11.78-11.43,4.97-2.95,10.73-5.09,17.26-6.41,6.53-1.32,13.44-1.98,20.75-1.98,6.06,0,11.35.58,15.86,1.75,4.51,1.17,8.31,2.53,11.43,4.08,3.11,1.56,5.6,3.15,7.46,4.78s3.26,3,4.2,4.08c.78,1.09.93,2.25.47,3.5l-9.56,18.19c-.31.47-.74.66-1.28.58-.55-.08-.82-.43-.82-1.05-.16-4.97-1.01-9.44-2.56-13.41-1.55-3.96-3.58-7.34-6.06-10.14-2.49-2.8-5.4-4.93-8.74-6.41-3.34-1.48-6.88-2.22-10.61-2.22-10.11,0-17.96,2.37-23.55,7.11-5.6,4.74-8.39,11.78-8.39,21.1,0,5.6,1.98,10.3,5.95,14.11,3.96,3.81,8.9,7.19,14.81,10.14,5.91,2.96,12.32,5.75,19.24,8.39,6.91,2.65,13.33,5.71,19.24,9.21,5.91,3.5,10.84,7.66,14.81,12.47,3.96,4.82,5.95,10.88,5.95,18.19s-1.79,13.84-5.36,18.65Zm112.16-11.43l-8.63,27.05c-.62,1.71-1.71,2.56-3.26,2.56h-56.66v-.23h-33.58c-.47,0-.78-.23-.93-.7-.15-.47,0-.85.47-1.17,3.42-1.55,6.02-3.53,7.81-5.95,1.79-2.41,2.68-4.7,2.68-6.88v-107.03c0-4.51-1.17-8.08-3.5-10.73-2.33-2.64-4.51-4.58-6.53-5.83-.47-.31-.62-.7-.47-1.17.15-.47.47-.7.93-.7h43.6c.47,0,.78.23.93.7.15.47,0,.86-.47,1.17-3.42,1.71-6.06,3.77-7.93,6.18-1.87,2.41-2.8,4.7-2.8,6.88v121.02h34.04c3.42,0,6.72-.82,9.91-2.45,3.18-1.63,6.18-3.73,8.98-6.3,2.8-2.57,5.32-5.36,7.58-8.39,2.25-3.03,4.23-5.95,5.95-8.74.31-.62.74-.82,1.28-.58.54.23.74.66.58,1.28Zm42.67,21.34c1.87,2.41,4.51,4.47,7.93,6.18.47.31.62.7.47,1.17-.16.47-.47.7-.93.7h-44.07c-.47,0-.78-.23-.93-.7-.15-.47,0-.85.47-1.17,3.42-1.71,6.02-3.77,7.81-6.18,1.79-2.41,2.68-4.7,2.68-6.88v-106.79c0-4.51-1.17-8.12-3.5-10.84-2.33-2.72-4.51-4.7-6.53-5.95-.47-.31-.62-.66-.47-1.05.15-.39.47-.58.93-.58h43.6c.47,0,.78.23.93.7.15.47,0,.86-.47,1.17-3.42,1.56-6.06,3.54-7.93,5.95-1.87,2.41-2.8,4.7-2.8,6.88v110.53c0,2.18.93,4.47,2.8,6.88Zm124.52-15.27c-.78,1.56-2.14,3.65-4.08,6.3-1.95,2.65-4.55,5.21-7.81,7.7-3.26,2.49-7.27,4.66-12.01,6.53-4.74,1.87-10.3,2.8-16.67,2.8-10.88,0-20.72-1.83-29.5-5.48-8.78-3.65-16.29-8.66-22.5-15.04-6.22-6.37-11-13.83-14.34-22.39-3.34-8.55-5.01-17.64-5.01-27.28s1.83-18.69,5.48-27.17c3.65-8.47,8.63-15.89,14.92-22.27,6.3-6.37,13.72-11.39,22.27-15.04,8.55-3.65,17.64-5.48,27.28-5.48,3.11,0,6.33.27,9.68.82,3.34.55,6.68,1.21,10.03,1.98,3.34.78,6.53,1.67,9.56,2.68,3.03,1.01,5.63,1.98,7.81,2.92,1.71.78,2.25,2.02,1.63,3.73l-7.93,25.42c-.16.31-.43.47-.82.47s-.58-.23-.58-.7c-.16-2.33-.7-5.36-1.63-9.09-.93-3.73-2.49-7.34-4.66-10.84-2.18-3.5-5.21-6.49-9.09-8.98-3.89-2.49-8.94-3.73-15.16-3.73-7,0-13.14,1.71-18.42,5.13-5.29,3.42-9.76,8.08-13.41,13.99-3.65,5.91-6.41,12.82-8.28,20.75-1.87,7.93-2.8,16.4-2.8,25.42s1.13,17.49,3.38,25.42c2.25,7.93,5.4,14.81,9.44,20.64,4.04,5.83,8.9,10.46,14.57,13.87,5.67,3.42,11.93,5.13,18.77,5.13,5.91,0,11-.89,15.27-2.68,4.27-1.79,7.89-3.92,10.84-6.41,2.95-2.48,5.28-5.05,7-7.69,1.71-2.64,2.95-4.74,3.73-6.3.31-.47.74-.74,1.28-.82.54-.08.97.12,1.28.58l.47.7c.78,1.4.78,2.88,0,4.43Zm147.13-46.63c0,9.95-1.91,19.35-5.71,28.21-3.81,8.86-9.02,16.6-15.62,23.2s-14.3,11.82-23.08,15.62c-8.78,3.81-18.23,5.71-28.33,5.71s-19.35-1.9-28.21-5.71c-8.86-3.81-16.6-9.01-23.2-15.62-6.61-6.61-11.82-14.34-15.62-23.2-3.81-8.86-5.71-18.26-5.71-28.21v-.23c0-10.1,1.9-19.55,5.71-28.33,3.81-8.78,9.01-16.48,15.62-23.08s14.34-11.81,23.2-15.62c8.86-3.81,18.26-5.71,28.21-5.71s19.55,1.91,28.33,5.71c8.78,3.81,16.48,9.02,23.08,15.62,6.61,6.61,11.81,14.3,15.62,23.08,3.81,8.78,5.71,18.23,5.71,28.33v.23Zm131.75,69.37c-.16.55-.55.82-1.17.82h-25.42c-2.65,0-4.98-.85-7-2.56-4.82-3.88-8.71-8.04-11.66-12.47-2.96-4.43-5.44-8.86-7.46-13.29-2.02-4.43-3.81-8.82-5.36-13.17-1.56-4.35-3.38-8.47-5.48-12.36-2.1-3.88-4.66-7.38-7.69-10.49-3.03-3.11-7.04-5.75-12.01-7.93h-9.56v57.13c0,2.18.93,4.47,2.8,6.88,1.87,2.41,4.51,4.47,7.93,6.18.47.31.62.7.47,1.17-.16.47-.47.7-.93.7h-44.07c-.47,0-.78-.23-.93-.7-.15-.47,0-.85.47-1.17,3.42-1.71,6.02-3.77,7.81-6.18,1.79-2.41,2.68-4.7,2.68-6.88v-106.79c0-4.51-1.17-8.08-3.5-10.73-2.33-2.64-4.51-4.58-6.53-5.83-.47-.31-.62-.7-.47-1.17.15-.47.47-.7.93-.7h53.63c7,.16,13.64.97,19.94,2.45,6.29,1.48,11.78,3.61,16.44,6.41,4.66,2.8,8.39,6.34,11.19,10.61,2.8,4.28,4.2,9.21,4.2,14.81v.23c0,5.13-1.21,9.68-3.61,13.64-2.41,3.96-5.68,7.31-9.79,10.03-4.12,2.72-8.9,4.9-14.34,6.53-5.44,1.63-11.35,2.68-17.72,3.15,5.6,1.56,10.38,3.96,14.34,7.23s7.5,7,10.61,11.19c3.11,4.2,5.98,8.67,8.63,13.41,2.64,4.74,5.44,9.44,8.39,14.11,2.95,4.66,6.33,9.13,10.14,13.41,3.81,4.28,8.35,7.97,13.64,11.08.47.31.62.74.47,1.28Zm113.79-137.69l-6.3,22.62c-.16.31-.35.43-.58.35-.23-.08-.35-.27-.35-.58,0-3.26-.12-6.14-.35-8.63-.23-2.49-.82-4.55-1.75-6.18-.93-1.63-2.37-2.87-4.31-3.73-1.95-.85-4.63-1.28-8.04-1.28h-46.87v61.09h8.86c3.42,0,6.41-.19,8.98-.58,2.57-.39,4.86-1.08,6.88-2.1,2.02-1.01,3.88-2.33,5.6-3.96,1.71-1.63,3.34-3.69,4.9-6.18.31-.31.62-.39.93-.23.31.16.39.39.23.7l-4.66,14.22-6.3,21.92c0,.31-.16.43-.47.35-.31-.08-.47-.27-.47-.58,0-2.95-.12-5.6-.35-7.93s-.74-4.27-1.52-5.83c-.78-1.55-2.02-2.8-3.73-3.73-1.71-.93-3.96-1.48-6.76-1.63h-12.12v65.76h37.54c7,0,12.71-1.9,17.14-5.71,4.43-3.81,8.43-8.51,12.01-14.11.15-.31.35-.39.58-.23.23.16.35.39.35.7l-6.53,21.22c-.47,1.71-1.63,2.57-3.5,2.57h-91.41c-.47,0-.78-.23-.93-.7-.15-.47,0-.85.47-1.17,3.42-1.55,6.02-3.53,7.81-5.95,1.79-2.41,2.68-4.7,2.68-6.88v-107.03c0-4.51-1.17-8.08-3.5-10.73-2.33-2.64-4.51-4.58-6.53-5.83-.47-.31-.62-.7-.47-1.17.15-.47.47-.7.93-.7h100.5c1.24,0,1.71.62,1.4,1.87Zm110.06,120.32c-3.58,4.82-8.08,8.63-13.52,11.43-5.44,2.8-11.39,4.74-17.84,5.83-6.45,1.09-12.55,1.63-18.3,1.63-6.69,0-12.86-.62-18.54-1.87-5.68-1.24-10.73-2.72-15.16-4.43-4.43-1.71-8.2-3.42-11.31-5.13-3.11-1.71-5.44-3.11-7-4.2-.62-.31-1.01-.82-1.17-1.52s0-1.44.47-2.21l12.12-17.49c.31-.31.66-.43,1.05-.35.39.08.66.35.82.82.31,4.66,1.59,8.98,3.85,12.94,2.25,3.96,5.17,7.42,8.74,10.38,3.57,2.96,7.65,5.29,12.24,7,4.58,1.71,9.29,2.56,14.11,2.56,5.13,0,9.71-.82,13.76-2.45,4.04-1.63,7.5-3.77,10.38-6.41,2.88-2.64,5.05-5.75,6.53-9.33,1.48-3.57,2.21-7.23,2.21-10.96,0-5.44-2.02-9.99-6.06-13.64-4.04-3.65-9.02-7-14.92-10.03-5.91-3.03-12.32-5.98-19.24-8.86-6.92-2.88-13.29-6.1-19.12-9.68-5.83-3.57-10.73-7.81-14.69-12.71-3.96-4.9-5.95-10.84-5.95-17.84,0-6.53,1.44-12.12,4.31-16.79,2.88-4.66,6.8-8.47,11.78-11.43,4.97-2.95,10.73-5.09,17.25-6.41,6.53-1.32,13.44-1.98,20.75-1.98,6.06,0,11.35.58,15.86,1.75,4.51,1.17,8.31,2.53,11.43,4.08,3.11,1.56,5.6,3.15,7.46,4.78,1.87,1.63,3.26,3,4.2,4.08.78,1.09.93,2.25.47,3.5l-9.56,18.19c-.31.47-.74.66-1.28.58-.55-.08-.82-.43-.82-1.05-.16-4.97-1.01-9.44-2.56-13.41-1.56-3.96-3.58-7.34-6.06-10.14-2.49-2.8-5.4-4.93-8.74-6.41-3.34-1.48-6.88-2.22-10.61-2.22-10.11,0-17.95,2.37-23.55,7.11-5.6,4.74-8.39,11.78-8.39,21.1,0,5.6,1.98,10.3,5.95,14.11,3.96,3.81,8.9,7.19,14.81,10.14,5.91,2.96,12.32,5.75,19.24,8.39,6.92,2.65,13.33,5.71,19.24,9.21,5.91,3.5,10.84,7.66,14.81,12.47,3.96,4.82,5.95,10.88,5.95,18.19s-1.79,13.84-5.36,18.65Z"/>
        <path class="cls-13" d="m496.29,464.65c16.7-.36,38.37-.09,51.04,11.59l-16.52.02-6.76,1.92c14.39-.54,28.46,5.68,38.79,15.55l-56.27-161.1h-157.21l19.06,46.12-152.04,439.09-47.53,75.72h196.03l-16.82-72.48,21.67-75.03h111.6c1.33,15.13-.69,28.04-3,42.63-.32,2.04-2.59,6.34,1.04,5.88,19.54-46.45,26.65-102.67,11.65-151.37-7.24,4.26-13.03,11.46-20.31,15.57-5.54,3.13-15.02,4.47-17.95,6.31-1.38.86-20.02,23.41-20.78,24.84-3.17,5.93-.42,11.31-1.43,14.02-2.06,5.52-16.57,9.19-21.96,11.06l-2.12-3.96,4.97-11.57c-14.14,8.16-15.03,21.34-32.42,10.12-26.61-17.18.08-64.91,6.32-87.67,5.62-20.48,6.46-41.67,15.44-62.2,3.34-7.63,10.34-15,12.6-23.29-16.6,9.59-28.7,54.65-52.38,34.96,25.02-2.61,24.44-35.34,32.06-54.33,7.62-18.98,17.02-29.57,35.83-37.87-9.35-14.76-13.59-32.3-15.47-49.5l47.55,34.92c2.88-9.3-5.77-20.89,1.92-29.06l33.41,29.1Z"/>
        <path class="cls-4" d="m635.7,705.57c-41.42,15.37-74.23,52.65-96.18,89.93-3.29,5.59-9.13,13.96-8.7,20.41,15.87-18.29,33.46-37.96,54.73-50.08,3.54-2.02,10.09-6.71,14.17-5.23-39.91,34.85-72.15,82.64-89.27,132.96h217.38l-52.16-74.97-39.97-113.02Z"/>
        <path class="cls-1" d="m1057.59,551.09h176.67l-.84-26.58c-1.07-33.87-9.16-63.76-24.05-88.84-14.58-24.56-33.89-45.1-57.4-61.05-22.84-15.49-49.06-27.04-77.96-34.32-28.04-7.07-56.85-10.65-85.61-10.65-42.94,0-82.76,5.88-118.34,17.49-36.5,11.91-68.15,30.01-94.05,53.82-26.05,23.95-46.4,54.2-60.46,89.89-13.82,35.05-20.83,76.07-20.83,121.9,0,43.18,7.3,82.67,21.7,117.39,14.5,34.97,35.19,65.25,61.5,89.98,26.18,24.63,57.6,43.77,93.39,56.89,35.38,12.97,74.54,19.55,116.39,19.55,12.85,0,27.62-.74,43.94-2.21,16.39-1.5,33.33-4.01,50.38-7.46,17.39-3.53,34.72-8.38,51.5-14.4,18.01-6.45,34.32-14.97,48.46-25.31,14.97-10.93,27.14-24.16,36.19-39.33,9.67-16.21,14.57-34.88,14.57-55.5l-.82-169.6h-198.77v61.41h25.77c6.16,0,10.83,1.61,15.12,5.23,1.27,1.07,4.24,3.57,4.24,12.72v133.95c0,.41-.03.66-.05.8-.07.08-.2.21-.42.39-4.04,3.45-9.08,6.33-14.99,8.56-6.72,2.55-13.85,4.3-21.21,5.22-8.24,1.03-15.22,1.56-20.76,1.56-28.62,0-52.84-6.31-71.98-18.74-20.08-13.05-36.59-30.18-49.07-50.91-13.06-21.7-22.7-46.37-28.64-73.33-6.14-27.87-9.26-55.54-9.26-82.24,0-23.72,1.59-47.86,4.71-71.74,2.9-22.21,8.72-42.26,17.28-59.6,7.94-16.07,18.96-28.75,33.7-38.76,13.89-9.44,33.21-14.23,57.43-14.23,37.35,0,62.79,9.67,77.75,29.55,15.24,20.27,19.02,49.72,11.22,87.54l-6.39,30.97Z"/>
        <path class="cls-10" d="m1697.22,659.62c-16.76-20.69-37.98-39.17-63.06-54.94-9.95-6.26-20.29-12.32-30.94-18.17-31.13,33.6-85.62,58.12-99.44,97.67-7.99,22.86-6.59,126.6-4.29,155.67,2.98,37.72,27.36,39.53,54.02,40.09,23.2.49,46.27-3.75,67.76-12.52,10.24-4.18,20.26-8.67,26.81-12.57,22.57-13.43,40.97-29.57,54.72-47.97,15.09-20.22,22.75-42.13,22.75-65.12,0-31.31-9.53-58.95-28.32-82.14Z"/>
        <path class="cls-12" d="m1587.96,578.39c-6.07-3.13-12.23-6.2-18.48-9.18-64.82,62.44-194.39,27.66-194.82-72.38l20.51,15.98c42.44,17.02,86.52-23.34,125.07-36.4,10.33-3.5,75.63-17.48,78.62-14.11,0,22.01,2.07,42.73-2.88,62.71h20.14c14.84-59.01-8.63-129.39-29.57-183.78-5.94-1.6-12.01-2.97-18.21-4.11-24.46-4.49-49.75-6.77-75.15-6.77-22.35,0-46.35,2-71.36,5.96-12.31,1.95-24.27,4.66-35.83,8.09-19.77,57.31-44.07,123.55-27.41,183.54,28.16,101.39,163.98,123.71,229.36,50.46Z"/>
        <path class="cls-7" d="m1366.08,580.81c-52.51-66.88-18.71-162.17,11.86-233.9-10.05,3.33-19.77,7.22-29.1,11.67-23.7,11.3-43.72,27.15-59.52,47.1-17.02,21.51-25.65,48.72-25.65,80.86,0,34.73,9.33,64.73,27.73,89.16,16.74,22.26,37.89,41.85,62.84,58.22,16.74,11,34.61,21.2,53.32,30.52l3.47,2.28c23.45,15.4,41.44,37.96,50.68,64.45,1.11,3.19,1.98,6.12,2.46,8.58,3.02,15.31-8.13,29.72-23.63,30.62-8.21.48-18.59-5.13-23.23-11.92-14.06-20.56-19.29-56.4-20.97-72.07h-148.31l.83,26.57c1.07,34.41,8.96,64,23.45,87.97,14.3,23.65,33.28,42.91,56.43,57.23,12.37,7.66,25.17,15.94,39.89,19.44,6.58,1.57,13.16,2.1,19.8,2.56,7.79.54,15.61.46,23.4-.1,32.49-2.33,62.13,2.03,66.45-48.85,2.97-34.93,2.19-126.65-11.38-157.16-13.44-30.23-75.58-61.05-100.84-93.22Z"/>
        <path class="cls-2" d="m1632.53,525h87.03l-1.84-27.49c-2.18-32.53-10.57-60.17-24.95-82.18-14.07-21.51-32.15-39.01-53.74-52.03-13.49-8.13-28.18-14.67-43.86-19.57,7.37,13.9,16,37.87,18.66,45.41,14.18,40.24,26.32,91.07,18.7,135.86Z"/>
      </g>
      <path class="cls-3" d="m1598.75,826.74c-.78-5.79-1.44-11.11-2.21-16.43-1.49-10.32-3.3-20.56-6.73-30.47-4.87-14.08-14.64-22.86-28.71-27.27-9.29-2.91-18.83-4.6-28.43-5.97-5.32-.76-10.65-1.45-16.04-2.39.6-.1,1.2-.2,1.8-.29,11.16-1.78,22.35-3.37,33.46-5.4,6.37-1.17,12.52-3.3,18.34-6.28,10.24-5.26,16.33-13.85,19.97-24.48,3.21-9.38,4.91-19.09,6.33-28.86.77-5.32,1.39-10.66,2.08-16,.03-.26.15-.5.47-.75.49,3.85.94,7.7,1.48,11.54,1.75,12.41,3.46,24.83,8,36.62,3.02,7.83,7.56,14.54,14.62,19.33,5.67,3.85,12.02,6.13,18.57,7.92,10.51,2.86,21.3,4.2,32.05,5.7,2.44.34,4.88.61,7.29,1.18-4.54.6-9.08,1.17-13.61,1.81-11.03,1.58-22,3.35-32.62,6.95-14.16,4.81-23.15,14.45-27.66,28.56-2.9,9.07-4.62,18.37-5.97,27.75-.78,5.43-1.4,10.88-2.09,16.33-.02.14-.12.28-.39.89Z"/>
    </g>
  </g>
</svg>